name C:\Users\r0593348\3dpredictsim\Results\MidTarsalJoint\Fal_s1_bCst_PF_Natali2010_ls150_MT_k100_d010_MTP_T5_ig21.mot
datacolumns 128
datarows 4
range 0.57907025 0.61381447
endheader
time	pelvis_tilt	pelvis_list	pelvis_rotation	pelvis_tx	pelvis_ty	pelvis_tz	hip_flexion_l	hip_adduction_l	hip_rotation_l	hip_flexion_r	hip_adduction_r	hip_rotation_r	knee_angle_l	knee_angle_r	ankle_angle_l	ankle_angle_r	subtalar_angle_l	subtalar_angle_r	mtj_angle_l	mtj_angle_r	mtp_angle_l	mtp_angle_r	lumbar_extension	lumbar_bending	lumbar_rotation	arm_flex_l	arm_add_l	arm_rot_l	arm_flex_r	arm_add_r	arm_rot_r	elbow_flex_l	elbow_flex_r	pro_sup_l	pro_sup_r	glut_med1_l/activation	glut_med2_l/activation	glut_med3_l/activation	glut_min1_l/activation	glut_min2_l/activation	glut_min3_l/activation	semimem_l/activation	semiten_l/activation	bifemlh_l/activation	bifemsh_l/activation	sar_l/activation	add_long_l/activation	add_brev_l/activation	add_mag1_l/activation	add_mag2_l/activation	add_mag3_l/activation	tfl_l/activation	pect_l/activation	grac_l/activation	glut_max1_l/activation	glut_max2_l/activation	glut_max3_l/activation	iliacus_l/activation	psoas_l/activation	quad_fem_l/activation	gem_l/activation	peri_l/activation	rect_fem_l/activation	vas_med_l/activation	vas_int_l/activation	vas_lat_l/activation	med_gas_l/activation	lat_gas_l/activation	soleus_l/activation	tib_post_l/activation	flex_dig_l/activation	flex_hal_l/activation	tib_ant_l/activation	per_brev_l/activation	per_long_l/activation	per_tert_l/activation	ext_dig_l/activation	ext_hal_l/activation	ercspn_l/activation	intobl_l/activation	extobl_l/activation	glut_med1_r/activation	glut_med2_r/activation	glut_med3_r/activation	glut_min1_r/activation	glut_min2_r/activation	glut_min3_r/activation	semimem_r/activation	semiten_r/activation	bifemlh_r/activation	bifemsh_r/activation	sar_r/activation	add_long_r/activation	add_brev_r/activation	add_mag1_r/activation	add_mag2_r/activation	add_mag3_r/activation	tfl_r/activation	pect_r/activation	grac_r/activation	glut_max1_r/activation	glut_max2_r/activation	glut_max3_r/activation	iliacus_r/activation	psoas_r/activation	quad_fem_r/activation	gem_r/activation	peri_r/activation	rect_fem_r/activation	vas_med_r/activation	vas_int_r/activation	vas_lat_r/activation	med_gas_r/activation	lat_gas_r/activation	soleus_r/activation	tib_post_r/activation	flex_dig_r/activation	flex_hal_r/activation	tib_ant_r/activation	per_brev_r/activation	per_long_r/activation	per_tert_r/activation	ext_dig_r/activation	ext_hal_r/activation	ercspn_r/activation	intobl_r/activation	extobl_r/activation	
          0.57907025	         -2.92990870	          2.33170452	         -5.92892506	          0.72383781	          0.91815923	          0.00175283	         29.41485086	          3.39989972	         -2.09684520	        -16.06486415	         -1.59180675	          6.51960498	        -10.44254431	         -9.84443478	          4.98973623	         -4.73138387	         -4.76196408	         11.23341835	         -0.07066030	         10.68946012	         -0.81187821	          1.33171857	         -1.84226954	         -0.42007042	          2.22109778	         -6.13884883	        -13.46972476	          5.21835063	          4.94660057	        -13.45210559	         15.95947249	         17.42568627	         36.45114340	         86.51662706	         86.51662706	          0.05965108	          0.05965109	          0.05000032	          0.05965120	          0.05965117	          0.05489649	          0.22478091	          0.07437470	          0.12716858	          0.05962230	          0.05000040	          0.14416472	          0.26647784	          0.16391764	          0.18889354	          0.11054786	          0.05000018	          0.05100467	          0.13494927	          0.05000232	          0.07359629	          0.16360957	          0.05000090	          0.05000021	          0.19206386	          0.29148997	          0.13616465	          0.05000022	          0.10410435	          0.10274793	          0.09226708	          0.06315628	          0.06516047	          0.05921299	          0.05000007	          0.05000137	          0.05000055	          0.47182128	          0.24133656	          0.16323683	          0.17596930	          0.44422897	          0.19931223	          0.05375025	          0.11987879	          0.10500258	          0.22825157	          0.10515994	          0.07666189	          0.25570117	          0.19340561	          0.12079017	          0.05000219	          0.05000051	          0.05000033	          0.05035568	          0.12078570	          0.05024588	          0.05004647	          0.05000151	          0.05000238	          0.05000085	          0.31002571	          0.07114599	          0.05002621	          0.05000295	          0.05000228	          0.05000180	          0.44559174	          0.62370653	          0.05000060	          0.05000094	          0.05158362	          0.29475865	          0.05000051	          0.05000056	          0.05000047	          0.29015790	          0.39854742	          0.37850964	          0.26005225	          0.21806228	          0.29880374	          0.05000005	          0.05965147	          0.16073406	          0.05000043	          0.05000010	          0.05000033	          0.05000002	          0.05000021	          0.05143839	
          0.59065166	         -2.92952567	          2.41449339	         -6.22104557	          0.74128724	          0.91706824	          0.00155617	         28.77411593	          3.76868405	         -1.85176880	        -16.06004038	         -1.90671578	          6.33178953	        -10.75826530	        -11.54969563	          4.27079568	         -5.16000198	         -5.10928223	         12.12431056	         -0.05953899	          9.52929943	         -0.82208103	          2.83888323	         -1.64127493	         -0.60688216	          2.29334283	         -7.03223939	        -13.46319879	          5.11172479	          4.68553552	        -13.45934802	         16.31712173	         16.96678061	         37.60364721	         86.51662706	         86.51662706	          0.05000002	          0.05000007	          0.09461500	          0.05000008	          0.05000009	          0.05000012	          0.18841295	          0.06234145	          0.10659358	          0.05000020	          0.05238838	          0.12084063	          0.28301995	          0.30481978	          0.19522481	          0.10510364	          0.05000069	          0.07117121	          0.12869198	          0.05000662	          0.09295362	          0.13713921	          0.05000028	          0.07116293	          0.51242806	          0.24432887	          0.11413419	          0.06024322	          0.13217857	          0.13211267	          0.11336966	          0.06193577	          0.06750344	          0.05000054	          0.05965122	          0.05000867	          0.05965113	          0.45581049	          0.27147572	          0.20360102	          0.14749897	          0.40281171	          0.16706494	          0.05000001	          0.10048320	          0.08801386	          0.19132207	          0.08814583	          0.06425869	          0.21433069	          0.16211401	          0.10124726	          0.05000421	          0.05000108	          0.05000108	          0.05000047	          0.10124404	          0.10787652	          0.05125570	          0.05965172	          0.05964552	          0.05965067	          0.25986595	          0.05965180	          0.05954699	          0.05000509	          0.05000383	          0.05000598	          0.37349838	          0.59483008	          0.05575393	          0.05966240	          0.07108618	          0.24942430	          0.13891053	          0.07452915	          0.14339954	          0.24321228	          0.33406520	          0.34400434	          0.22885325	          0.18278228	          0.25046070	          0.05000017	          0.05000052	          0.17544481	          0.05000037	          0.05000014	          0.05000065	          0.05330695	          0.06829922	          0.06364396	
          0.60223306	         -2.92490043	          2.49985204	         -6.47903409	          0.75907656	          0.91604396	          0.00138609	         28.01272481	          4.04178126	         -1.57877495	        -16.01238809	         -2.22171742	          6.13884428	        -11.30872153	        -13.31035125	          3.69301899	         -5.67915740	         -5.47056187	         12.95697270	         -0.35511939	          8.05954568	         -0.80451722	          4.69521873	         -1.41661313	         -0.80601836	          2.35195077	         -7.95465975	        -13.46450167	          5.07014984	          4.33849245	        -13.46153959	         16.59429309	         16.55727632	         38.72966129	         86.51662706	         86.51662706	          0.23018809	          0.22177661	          0.26254360	          0.33716551	          0.22670217	          0.19621867	          0.15792934	          0.06682213	          0.09038770	          0.08180598	          0.05000114	          0.10128949	          0.23722927	          0.25550208	          0.16363899	          0.10895406	          0.05000077	          0.05965736	          0.10787136	          0.05000088	          0.10405140	          0.11495131	          0.05383516	          0.05964938	          0.42952061	          0.20479823	          0.20031468	          0.05049630	          0.11079305	          0.11073781	          0.09502729	          0.05191506	          0.05658196	          0.05000068	          0.05000021	          0.05000065	          0.05000087	          0.52644588	          0.31845776	          0.17066068	          0.31913852	          0.48084257	          0.14003599	          0.05478740	          0.12591713	          0.07377380	          0.31831658	          0.07388457	          0.06178595	          0.31251241	          0.13588549	          0.08486641	          0.05000211	          0.05000029	          0.05000025	          0.05000037	          0.08489121	          0.09042289	          0.05000049	          0.05000087	          0.05000116	          0.05000087	          0.27034353	          0.05000217	          0.05000091	          0.05003707	          0.05000507	          0.05000179	          0.31306930	          0.57185371	          0.05000073	          0.05001067	          0.05958587	          0.20906929	          0.11643714	          0.06289321	          0.12019995	          0.20386213	          0.28001568	          0.28834673	          0.19182663	          0.15320969	          0.20993818	          0.05000003	          0.10953098	          0.18798139	          0.05000025	          0.05000009	          0.05000024	          0.05000006	          0.05724886	          0.05334681	
          0.61381447	         -2.91847118	          2.57806568	         -6.69713478	          0.77698473	          0.91515571	          0.00119260	         27.20963321	          4.28645226	         -1.31064429	        -15.87132916	         -2.52433391	          5.96039853	        -11.82003015	        -15.18427935	          3.09825416	         -6.29831881	         -5.83219460	         13.73451967	         -0.33535895	          6.30281263	         -0.73414910	          6.84151987	         -1.19296756	         -1.00622220	          2.40107337	         -8.85713387	        -13.46549545	          5.08941207	          3.94161362	        -13.46829467	         16.81627860	         16.17938018	         39.80727624	         86.51662706	         86.51662706	          0.32648127	          0.31883381	          0.34514599	          0.28261462	          0.19002495	          0.19130979	          0.13237750	          0.06689494	          0.07586378	          0.06857063	          0.05000194	          0.08490157	          0.19884719	          0.21416379	          0.13716391	          0.14451615	          0.05000060	          0.05000589	          0.09041888	          0.20220258	          0.17042344	          0.13954858	          0.05000011	          0.05000013	          0.36002706	          0.17166333	          0.16790548	          0.05000012	          0.11549776	          0.13092147	          0.09289647	          0.05000004	          0.05000009	          0.05000001	          0.05000005	          0.05000019	          0.05000020	          0.58596518	          0.29875867	          0.16670875	          0.53658435	          0.51893564	          0.25644747	          0.07497863	          0.10554458	          0.06183770	          0.27550706	          0.06193061	          0.05178963	          0.26195066	          0.11390026	          0.07113571	          0.05000290	          0.05000037	          0.05000034	          0.05000046	          0.07115760	          0.07893059	          0.05000080	          0.05000084	          0.05000158	          0.05000078	          0.22660411	          0.05153036	          0.05000269	          0.05000382	          0.05000256	          0.05000142	          0.26241683	          0.53024994	          0.05000097	          0.05000272	          0.05000070	          0.17524329	          0.09759949	          0.12081353	          0.12080955	          0.17087858	          0.23471099	          0.24169411	          0.16079041	          0.12842156	          0.17597171	          0.05689479	          0.10074995	          0.19003355	          0.05000062	          0.10182228	          0.05000134	          0.06976721	          0.05000002	          0.05000006	
